<svg width="106" height="106" viewBox="0 0 106 106" fill="none" xmlns="http://www.w3.org/2000/svg">
<g filter="url(#filter0_d_341_421)">
<path d="M87.8068 48.9117C120.649 86.3213 90.3213 116.649 52.9117 83.8068C15.5021 116.649 -14.8258 86.3213 18.0166 48.9117C-14.8258 11.5021 15.5021 -18.8258 52.9117 14.0166C90.3213 -18.8258 120.649 11.5021 87.8068 48.9117V48.9117Z" fill="#231F20"/>
<path d="M53.2416 83.431L52.9117 83.1414L52.5818 83.431C43.2795 91.5977 34.454 95.8044 26.9812 96.9766C19.512 98.1482 13.413 96.29 9.47318 92.3502C5.53339 88.4104 3.67516 82.3114 4.84678 74.8422C6.01897 67.3694 10.2257 58.5439 18.3923 49.2416L18.6819 48.9117L18.3923 48.5818C10.2257 39.2795 6.01897 30.454 4.84678 22.9812C3.67516 15.512 5.53339 9.41297 9.47318 5.47318C13.413 1.53339 19.512 -0.324843 26.9812 0.846782C34.454 2.01897 43.2795 6.22568 52.5818 14.3923L52.9117 14.6819L53.2416 14.3923C62.5439 6.22568 71.3694 2.01897 78.8422 0.846782C86.3114 -0.324843 92.4104 1.53339 96.3502 5.47318C100.29 9.41297 102.148 15.512 100.977 22.9812C99.8044 30.454 95.5977 39.2795 87.431 48.5818L87.8068 48.9117L87.431 49.2416C95.5977 58.5439 99.8044 67.3694 100.977 74.8422C102.148 82.3114 100.29 88.4104 96.3502 92.3502C92.4104 96.29 86.3114 98.1482 78.8422 96.9766C71.3694 95.8044 62.5439 91.5977 53.2416 83.431Z" stroke="black"/>
</g>
<defs>
<filter id="filter0_d_341_421" x="0" y="0" width="105.824" height="105.823" filterUnits="userSpaceOnUse" color-interpolation-filters="sRGB">
<feFlood flood-opacity="0" result="BackgroundImageFix"/>
<feColorMatrix in="SourceAlpha" type="matrix" values="0 0 0 0 0 0 0 0 0 0 0 0 0 0 0 0 0 0 127 0" result="hardAlpha"/>
<feOffset dy="4"/>
<feGaussianBlur stdDeviation="2"/>
<feComposite in2="hardAlpha" operator="out"/>
<feColorMatrix type="matrix" values="0 0 0 0 0 0 0 0 0 0 0 0 0 0 0 0 0 0 0.25 0"/>
<feBlend mode="normal" in2="BackgroundImageFix" result="effect1_dropShadow_341_421"/>
<feBlend mode="normal" in="SourceGraphic" in2="effect1_dropShadow_341_421" result="shape"/>
</filter>
</defs>
</svg>
